<svg width="90" height="90" viewBox="0 0 90 90" fill="none" xmlns="http://www.w3.org/2000/svg">
<path d="M0 45C0 20.1472 20.1472 0 45 0V0C69.8528 0 90 20.1472 90 45V45C90 69.8528 69.8528 90 45 90V90C20.1472 90 0 69.8528 0 45V45Z" fill="#5865F2"/>
<g clip-path="url(#clip0_12_68)">
<path d="M65.162 26.4339C61.4537 24.7283 57.4772 23.4716 53.3195 22.7519C53.2438 22.738 53.1682 22.7727 53.1292 22.8422C52.6177 23.754 52.0513 24.9435 51.6546 25.8784C47.1827 25.2073 42.7338 25.2073 38.3536 25.8784C37.9568 24.9227 37.3698 23.754 36.8561 22.8422C36.8171 22.7751 36.7414 22.7403 36.6657 22.7519C32.5103 23.4693 28.5338 24.726 24.8233 26.4339C24.7911 26.4478 24.7636 26.4709 24.7453 26.501C17.2027 37.7968 15.1365 48.8149 16.1501 59.6965C16.1547 59.7497 16.1845 59.8006 16.2258 59.833C21.2022 63.4964 26.0227 65.7204 30.7537 67.1946C30.8294 67.2177 30.9096 67.19 30.9578 67.1275C32.0769 65.5955 33.0745 63.9801 33.9298 62.2814C33.9803 62.182 33.9321 62.0639 33.829 62.0246C32.2466 61.4229 30.7399 60.6893 29.2905 59.8562C29.1759 59.7891 29.1667 59.6247 29.2722 59.546C29.5772 59.3169 29.8823 59.0785 30.1735 58.8378C30.2262 58.7939 30.2996 58.7846 30.3616 58.8124C39.8832 63.1701 50.1915 63.1701 59.6007 58.8124C59.6627 58.7823 59.7361 58.7916 59.7911 58.8355C60.0824 59.0762 60.3874 59.3169 60.6947 59.546C60.8001 59.6247 60.7933 59.7891 60.6786 59.8562C59.2293 60.7054 57.7226 61.4229 56.1379 62.0223C56.0347 62.0616 55.9889 62.182 56.0393 62.2814C56.913 63.9778 57.9106 65.5931 59.0091 67.1252C59.055 67.19 59.1375 67.2177 59.2132 67.1946C63.9671 65.7204 68.7876 63.4964 73.764 59.833C73.8076 59.8006 73.8351 59.752 73.8397 59.6988C75.0528 47.1185 71.8078 36.1907 65.2376 26.5033C65.2215 26.4709 65.1941 26.4478 65.162 26.4339ZM35.3517 53.0708C32.4851 53.0708 30.123 50.4326 30.123 47.1926C30.123 43.9526 32.4393 41.3145 35.3517 41.3145C38.2871 41.3145 40.6262 43.9758 40.5804 47.1926C40.5804 50.4326 38.2641 53.0708 35.3517 53.0708ZM54.684 53.0708C51.8174 53.0708 49.4553 50.4326 49.4553 47.1926C49.4553 43.9526 51.7715 41.3145 54.684 41.3145C57.6194 41.3145 59.9585 43.9758 59.9127 47.1926C59.9127 50.4326 57.6194 53.0708 54.684 53.0708Z" fill="white"/>
</g>
<defs>
<clipPath id="clip0_12_68">
<rect width="59" height="46" fill="white" transform="translate(15.5 22)"/>
</clipPath>
</defs>
</svg>
